<svg width="371" height="89" viewBox="0 0 371 89" fill="none" xmlns="http://www.w3.org/2000/svg">
<path d="M0 0H371L300.87 69.3511C288.14 81.9396 270.959 89 253.056 89H0V0Z" fill="white"/>
<path fill-rule="evenodd" clip-rule="evenodd" d="M124.491 46.541H132.482C132.947 46.541 133.411 46.8219 133.69 47.3836L135.27 50.5668C135.456 51.0349 136.013 51.1285 136.292 50.8477L140.567 46.8219C140.752 46.6346 141.031 46.541 141.217 46.541C141.217 46.541 144.841 46.541 145.306 46.541C145.677 46.541 145.677 46.9155 145.491 47.1028C145.399 47.1964 138.058 53.6564 138.058 53.6564C137.779 53.9372 137.686 54.499 137.872 54.8735L142.146 63.0187C142.332 63.3932 142.146 63.7677 141.775 63.7677H133.969C133.504 63.7677 133.04 63.4868 132.854 63.0187L131.367 60.1164C131.181 59.6482 130.624 59.5546 130.345 59.8355L126.256 63.5804C126.07 63.7677 125.885 63.8613 125.606 63.8613H121.424C121.146 63.8613 120.96 63.3932 121.238 63.1123L128.486 56.8396C128.858 56.5587 128.858 55.997 128.672 55.5288L124.212 47.29C123.933 47.0091 124.119 46.541 124.491 46.541Z" fill="#20ABB1"/>
<path fill-rule="evenodd" clip-rule="evenodd" d="M165.284 46.541C162.031 46.541 150.23 46.541 147.814 46.541C147.349 46.541 147.442 46.9155 147.442 46.9155L147.721 47.9454C147.814 48.2262 147.814 48.5071 147.721 48.788L144.19 63.4868C144.097 63.7677 144.376 64.0485 144.655 64.0485H151.903C152.089 64.0485 152.274 63.9549 152.367 63.7677L153.018 61.5207C153.204 60.959 153.668 60.5845 154.226 60.5845H162.031C162.031 60.5845 165.748 60.7717 166.585 57.0268L168.257 50.4732C168.164 50.3796 169.279 46.9155 165.284 46.541ZM156.921 58.712H155.155C154.412 58.712 153.854 57.963 154.04 57.214L155.991 49.0688C156.084 48.5071 156.549 48.1326 157.106 48.1326H158.872C159.615 48.1326 160.173 48.8816 159.987 49.6306L158.036 57.7758C157.943 58.3375 157.478 58.712 156.921 58.712Z" fill="#20ABB1"/>
<path fill-rule="evenodd" clip-rule="evenodd" d="M170.209 47.1019C170.581 47.6636 171.046 48.6935 170.767 49.9106L168.258 62.8306C168.165 63.3923 168.444 63.9541 168.909 63.9541H175.785C176.157 63.9541 176.435 63.6732 176.435 63.2987L179.13 49.7234C179.223 49.1616 179.595 48.7871 180.059 48.7871H182.382C183.033 48.7871 183.405 49.5361 183.312 50.2851L182.197 56.1833C182.011 56.9323 182.475 57.5877 183.126 57.5877H188.329C190.374 57.5877 190.095 57.1196 190.374 54.779C190.374 54.3109 191.303 51.2213 191.396 50.6596C191.582 48.9744 191.396 46.6338 188.144 46.6338C184.891 46.6338 171.046 46.6338 170.488 46.6338C169.931 46.6338 170.209 47.1019 170.209 47.1019Z" fill="#20ABB1"/>
<path fill-rule="evenodd" clip-rule="evenodd" d="M210.816 46.918C207.657 46.918 196.878 46.918 196.878 46.918C196.878 46.918 193.811 46.918 193.068 50.4756C192.696 52.3481 191.116 59.9316 191.116 59.9316C191.116 59.9316 190.187 63.8637 193.625 63.8637H208.586C208.772 63.8637 208.958 63.7701 209.051 63.6765C209.515 63.302 210.537 62.4594 210.63 62.3658C210.816 62.2722 210.816 61.9913 210.537 61.9913C208.307 61.9913 200.223 61.9913 199.387 61.9913C198.457 61.9913 197.993 59.7443 200.037 59.7443C201.988 59.7443 206.727 59.7443 208.493 59.7443C210.723 59.7443 211.931 58.9017 212.582 56.093C213.139 53.9397 213.325 52.4417 213.79 50.5693C214.254 48.8841 213.883 46.918 210.816 46.918ZM203.382 57.4974H201.245C200.595 57.4974 200.223 56.7484 200.316 56.093L201.524 50.0075C201.617 49.4458 201.988 49.1649 202.453 49.1649H204.683C205.334 49.1649 205.705 49.9139 205.612 50.5693L204.311 56.6548C204.126 57.1229 203.754 57.4974 203.382 57.4974Z" fill="#20ABB1"/>
<path fill-rule="evenodd" clip-rule="evenodd" d="M236.741 46.541C236.741 46.541 221.501 46.541 219.922 46.541C218.342 46.541 216.855 46.9155 216.112 49.8178C215.74 51.1285 215.554 52.252 215.09 54.6862C214.904 55.8097 215.369 57.4013 217.134 57.4013H225.962C226.426 57.4013 226.798 57.963 226.705 58.5248C226.426 59.9291 225.776 62.0825 223.546 62.0825H216.019C215.833 62.0825 215.647 62.1761 215.461 62.2697C215.461 62.2697 213.882 63.3932 213.696 63.4868C213.51 63.5804 213.51 63.8613 213.789 63.8613C216.484 63.8613 227.913 63.8613 230.05 63.8613C232.466 63.8613 233.674 63.0187 234.139 61.0526C234.325 60.3972 234.604 58.1503 234.697 57.4013C234.697 57.4013 235.44 53.1883 231.258 53.1883H223.081C222.617 53.1883 222.245 52.6265 222.338 52.0648C222.524 50.8477 222.802 48.8816 224.94 48.8816C225.869 48.8816 232.188 48.8816 234.046 48.8816C235.997 48.8816 236.741 47.5709 236.741 46.541Z" fill="#20ABB1"/>
<path fill-rule="evenodd" clip-rule="evenodd" d="M259.88 46.541C259.88 46.541 244.64 46.541 243.06 46.541C241.481 46.541 239.994 46.9155 239.251 49.8178C238.879 51.1285 238.693 52.252 238.228 54.6862C238.043 55.8097 238.507 57.4013 240.273 57.4013H249.1C249.565 57.4013 249.937 57.963 249.844 58.5248C249.565 59.9291 248.915 62.0825 246.684 62.0825H239.158C238.972 62.0825 238.786 62.1761 238.6 62.2697C238.6 62.2697 237.02 63.3932 236.835 63.4868C236.649 63.5804 236.649 63.8613 236.928 63.8613C239.622 63.8613 251.052 63.8613 253.189 63.8613C255.605 63.8613 256.813 63.0187 257.278 61.0526C257.464 60.3972 257.742 58.1503 257.835 57.4013C257.835 57.4013 258.579 53.1883 254.397 53.1883H246.22C245.755 53.1883 245.384 52.6265 245.476 52.0648C245.662 50.8477 245.941 48.8816 248.078 48.8816C249.008 48.8816 255.326 48.8816 257.185 48.8816C259.136 48.8816 259.88 47.5709 259.88 46.541Z" fill="#20ABB1"/>
<path fill-rule="evenodd" clip-rule="evenodd" d="M118.265 28.5659C116.221 15.365 105.163 5.81546 90.4808 6.00271C88.2506 6.00271 85.2771 6.56444 83.0469 7.21981C79.5158 8.34328 76.6352 9.27951 73.0112 10.3094C70.9669 10.8711 67.25 12.1818 64.6481 12.9308C64.2764 13.0244 64.3694 13.4926 64.7411 13.5862L71.7103 14.1479C72.4537 14.2415 72.8254 14.9905 71.8032 15.2714C62.6967 18.0801 56.8426 20.0462 44.5767 23.1357C43.5546 23.4166 43.6475 24.1656 44.6696 24.2592C47.6432 24.3528 52.0106 24.4465 56.1921 24.4465C57.1213 24.4465 57.3072 25.8508 56.285 26.038C48.8512 27.4424 37.2358 29.4085 29.6161 30.6256C28.7798 30.7192 28.7798 32.0299 29.709 32.1236C31.6604 32.2172 33.5189 32.3108 35.4702 32.4044C42.6253 32.7789 47.4573 32.9662 54.5195 33.3407C57.4001 33.4343 59.7232 33.7151 59.909 35.3067C60.0949 36.8047 58.0506 37.5537 56.7497 37.6473C54.7053 37.8346 49.5016 38.5835 45.6918 38.958C45.1343 39.0517 45.0413 39.8943 45.6918 39.9879C49.6875 40.6433 54.4266 41.2986 57.4001 41.6731C65.2057 42.703 64.3694 44.9499 64.3694 45.3244C64.2764 47.2905 61.3958 47.5714 60.3737 47.7586C56.5638 48.5076 46.8998 48.1331 40.581 47.8522C39.9306 47.8522 39.7447 48.8821 40.3952 48.9757C51.1743 50.9418 63.0684 53.0951 76.7281 58.2444C82.1177 60.3041 88.9011 61.2403 94.5694 60.3977C111.667 57.6827 120.495 43.9201 118.265 28.5659ZM90.4808 54.125C79.0512 54.125 69.8518 44.7627 69.8518 33.3407C69.8518 21.825 79.1441 12.5563 90.4808 12.5563C101.91 12.5563 111.11 21.9186 111.11 33.3407C111.11 44.7627 101.817 54.125 90.4808 54.125Z" fill="#2A3478"/>
<path d="M90.4802 46.5401C97.7677 46.5401 103.675 40.588 103.675 33.2457C103.675 25.9033 97.7677 19.9512 90.4802 19.9512C83.1928 19.9512 77.2852 25.9033 77.2852 33.2457C77.2852 40.588 83.1928 46.5401 90.4802 46.5401Z" fill="#2A3478"/>
<path fill-rule="evenodd" clip-rule="evenodd" d="M92.245 39.4269C91.4087 39.895 90.1077 39.7077 89.3644 38.8651C88.7139 38.0225 85.6474 33.435 84.6253 31.8434C84.1607 31.0944 84.3465 30.1582 84.997 29.6901C86.5767 28.5666 88.4351 27.2559 88.4351 27.2559C89.6431 26.5069 90.8511 27.3495 90.8511 28.2857C89.6431 29.1283 87.5059 30.5327 87.1342 30.8135C85.6474 31.937 87.3201 33.8095 88.4351 33.0605C89.1785 32.5924 90.6653 31.5625 91.1299 31.188C92.5238 30.2518 93.5459 31.3753 93.6388 32.2179C92.6167 32.9669 91.5945 33.7158 90.2007 34.6521C88.8068 35.6819 90.3865 37.7416 91.6874 36.899C91.9662 36.7118 93.9176 35.4011 94.1034 35.2138C95.3114 34.2776 96.4265 35.3074 96.5194 36.2437C95.9619 36.6182 93.2671 38.6779 92.245 39.4269Z" fill="#20ABB1"/>
<path d="M142.144 20.608H141.959L134.711 40.2689H127.927L125.883 13.1182H131.458L132.295 33.4344H132.48L139.914 13.1182H146.419L146.976 33.4344H147.162L154.968 13.1182H161.008L149.764 40.2689H142.795L142.144 20.608Z" fill="#2A3478"/>
<path d="M177.828 36.3372L177.178 40.363C176.713 40.5502 175.97 40.5502 174.762 40.5502C173.74 40.5502 172.811 40.363 172.067 39.9885C171.324 39.614 170.952 38.9586 170.766 38.2096H170.58C169.744 39.0522 168.908 39.7076 167.886 40.1757C166.864 40.5502 165.656 40.8311 164.355 40.8311C163.24 40.8311 162.217 40.6438 161.288 40.1757C160.359 39.7076 159.616 39.0522 159.058 38.3032C158.5 37.4606 158.222 36.5244 158.222 35.4946C158.222 32.9667 158.965 31.2815 160.545 30.158C162.124 29.0346 164.355 28.4728 167.235 28.2856C169.001 28.192 170.302 27.9111 171.231 27.443C172.16 27.0685 172.625 26.3195 172.625 25.3833C172.625 24.1662 171.696 23.6044 169.837 23.6044C168.908 23.6044 167.979 23.8853 167.235 24.447C166.399 25.0088 165.841 25.7578 165.377 26.7876L160.545 25.8514C161.288 23.8853 162.496 22.4809 164.169 21.4511C165.841 20.4212 167.886 19.9531 170.302 19.9531C172.718 19.9531 174.576 20.4212 175.877 21.4511C177.178 22.4809 177.828 23.7917 177.828 25.3833C177.828 25.7578 177.828 26.1322 177.736 26.6004L176.156 35.6818V36.0563C176.156 36.3372 176.249 36.5244 176.342 36.618C176.435 36.7117 176.62 36.8053 176.806 36.8053C177.271 36.5244 177.643 36.4308 177.828 36.3372ZM167.7 31.4688C166.492 31.656 165.47 32.0305 164.726 32.5922C163.983 33.154 163.611 33.9966 163.611 34.9328C163.611 35.5882 163.89 36.1499 164.355 36.5244C164.819 36.8989 165.47 37.0862 166.213 37.0862C167.421 37.0862 168.443 36.7117 169.465 35.869C170.488 35.0264 171.138 33.903 171.417 32.3114L171.788 30.5325C171.324 30.907 169.93 31.2815 167.7 31.4688Z" fill="#2A3478"/>
<path d="M192.044 36.2451L191.301 40.3645C190.557 40.6454 189.349 40.739 187.863 40.739C186.19 40.739 184.889 40.4581 183.96 39.8964C183.123 39.3347 182.659 38.3048 182.659 36.9005C182.659 36.526 182.659 36.0579 182.752 35.4961L184.796 23.7932H181.637L182.194 20.2355H185.354L186.376 14.6182H191.672L190.65 20.2355H194.832L194.367 23.7932H190.186L188.327 34.7471C188.234 35.1216 188.234 35.3089 188.234 35.4025C188.234 35.8706 188.327 36.1515 188.606 36.2451C188.885 36.3387 189.256 36.4323 189.814 36.4323C190.65 36.526 191.394 36.4323 192.044 36.2451Z" fill="#2A3478"/>
<path d="M208.955 24.0714C208.305 23.5097 207.469 23.3225 206.447 23.3225C205.424 23.3225 204.588 23.6033 203.845 24.0714C203.101 24.5396 202.73 25.1013 202.73 25.8503C202.73 26.412 203.008 26.8801 203.473 27.0674C203.938 27.3482 204.774 27.6291 205.982 27.91L207.933 28.3781C209.234 28.7526 210.349 29.0335 211.186 29.408C212.022 29.7824 212.765 30.3442 213.323 30.9995C213.88 31.7485 214.159 32.6848 214.159 33.9019C214.159 36.1488 213.23 37.834 211.371 39.0511C209.513 40.2682 207.19 40.83 204.309 40.83C201.707 40.83 199.57 40.2682 197.991 39.1448C196.411 38.0213 195.482 36.4297 195.389 34.4636L200.314 33.8082C200.407 35.0253 200.871 35.9616 201.615 36.5233C202.358 37.085 203.38 37.3659 204.681 37.3659C205.796 37.3659 206.725 37.0851 207.562 36.6169C208.398 36.1488 208.77 35.3998 208.77 34.5572C208.77 33.9955 208.491 33.621 207.933 33.2465C207.376 32.9656 206.539 32.5911 205.331 32.3103L203.287 31.8422C202.172 31.5613 201.15 31.2804 200.314 30.9059C199.477 30.5314 198.827 29.9697 198.269 29.3143C197.712 28.5653 197.433 27.6291 197.433 26.5056C197.433 25.1013 197.898 23.9778 198.734 22.948C199.57 21.9181 200.778 21.1691 202.172 20.6074C203.566 20.0456 205.053 19.8584 206.725 19.8584C208.305 19.8584 209.606 20.1393 210.907 20.6074C212.115 21.0755 213.137 21.8245 213.88 22.7607C214.624 23.6969 214.995 24.7268 215.088 25.8503L210.256 26.5056C209.978 25.2885 209.606 24.5396 208.955 24.0714Z" fill="#2A3478"/>
<path d="M226.61 40.8298C223.915 40.8298 221.778 40.0809 220.198 38.5829C218.619 37.0849 217.782 35.1188 217.782 32.591C217.782 30.2504 218.247 28.1907 219.176 26.2246C220.105 24.2586 221.499 22.667 223.358 21.5435C225.216 20.42 227.353 19.7646 229.955 19.7646C232.65 19.7646 234.787 20.5136 236.367 22.0116C237.947 23.5096 238.783 25.4757 238.783 28.0035C238.783 30.3441 238.318 32.4974 237.389 34.4635C236.46 36.4296 235.066 37.9275 233.207 39.1446C231.349 40.1745 229.212 40.8298 226.61 40.8298ZM229.769 23.6968C228.283 23.6968 226.982 24.2586 226.052 25.2884C225.03 26.3183 224.38 27.5354 223.915 28.9397C223.451 30.3441 223.265 31.5612 223.265 32.6846C223.265 33.9954 223.543 35.0252 224.194 35.6806C224.844 36.4296 225.774 36.7104 226.889 36.7104C228.468 36.7104 229.676 36.1487 230.699 35.1188C231.721 34.089 232.371 32.8719 232.836 31.4675C233.3 30.0632 233.486 28.8461 233.486 27.7226C233.486 26.4119 233.115 25.4757 232.464 24.7267C231.814 24.0713 230.884 23.6968 229.769 23.6968Z" fill="#2A3478"/>
<path d="M250.493 40.8298C247.798 40.8298 245.661 40.0809 244.081 38.5829C242.501 37.0849 241.665 35.1188 241.665 32.591C241.665 30.2504 242.13 28.1907 243.059 26.2246C243.988 24.2586 245.382 22.667 247.24 21.5435C249.099 20.42 251.236 19.7646 253.838 19.7646C256.533 19.7646 258.67 20.5136 260.25 22.0116C261.829 23.5096 262.666 25.4757 262.666 28.0035C262.666 30.3441 262.201 32.4974 261.272 34.4635C260.343 36.4296 258.949 37.9275 257.09 39.1446C255.232 40.1745 253.095 40.8298 250.493 40.8298ZM253.652 23.6968C252.165 23.6968 250.864 24.2586 249.935 25.2884C248.913 26.3183 248.263 27.5354 247.798 28.9397C247.333 30.3441 247.148 31.5612 247.148 32.6846C247.148 33.9954 247.426 35.0252 248.077 35.6806C248.727 36.4296 249.656 36.7104 250.772 36.7104C252.351 36.7104 253.559 36.1487 254.581 35.1188C255.604 34.089 256.254 32.8719 256.719 31.4675C257.183 30.0632 257.369 28.8461 257.369 27.7226C257.369 26.4119 256.997 25.4757 256.347 24.7267C255.696 24.0713 254.767 23.6968 253.652 23.6968Z" fill="#2A3478"/>
<path d="M265.27 15.0866H266.849V19.5805H267.778V15.0866H269.358V14.1504H265.27V15.0866Z" fill="#203468"/>
<path d="M274.005 14.1504L272.797 17.8017C272.797 17.8953 272.704 18.0826 272.704 18.1762C272.704 18.0826 272.611 17.9889 272.611 17.8953L271.403 14.1504H270.195V19.5805H271.125V16.0229L272.24 19.5805H273.076L274.191 16.1165V19.5805H275.12V14.1504H274.005Z" fill="#203468"/>
<path d="M270.659 23.979C266.664 23.979 263.318 20.7022 263.318 16.5827C263.318 12.557 266.571 9.18652 270.659 9.18652C274.655 9.18652 278 12.4633 278 16.5827C278 20.7022 274.655 23.979 270.659 23.979ZM270.659 10.2164C267.128 10.2164 264.248 13.1187 264.248 16.6764C264.248 20.234 267.128 23.1364 270.659 23.1364C274.19 23.1364 277.071 20.234 277.071 16.6764C277.071 13.0251 274.19 10.2164 270.659 10.2164Z" fill="#203468"/>
<path fill-rule="evenodd" clip-rule="evenodd" d="M257.279 75.1885C256.907 75.1885 256.536 75.3758 256.257 75.6567C255.978 75.9375 255.699 76.4056 255.606 76.8738H258.208V76.7801C258.301 76.312 258.301 75.9375 258.115 75.6567C258.022 75.2822 257.744 75.1885 257.279 75.1885ZM256.443 80.8059C255.513 80.8059 254.863 80.5251 254.398 79.9633C253.934 79.4016 253.841 78.6526 253.934 77.7164L254.027 77.4355C254.212 76.4993 254.584 75.7503 255.235 75.0949C255.885 74.5332 256.628 74.2523 257.465 74.2523C258.301 74.2523 258.859 74.5332 259.23 75.0013C259.602 75.4694 259.695 76.2184 259.602 77.061L259.509 77.7164H255.42C255.328 78.3717 255.328 78.9335 255.513 79.308C255.699 79.6825 256.071 79.8697 256.721 79.8697C257.093 79.8697 257.465 79.7761 257.744 79.6824C258.022 79.5888 258.394 79.4016 258.673 79.2143L259.044 79.9633C258.766 80.1506 258.394 80.3378 257.929 80.5251C257.465 80.7123 256.907 80.8059 256.443 80.8059ZM250.031 79.8697C250.403 79.8697 250.681 79.7761 250.96 79.4952C251.239 79.308 251.425 78.9335 251.518 78.559H252.819C252.726 79.2143 252.354 79.6824 251.796 80.0569C251.239 80.4314 250.588 80.6187 249.845 80.6187C248.916 80.6187 248.265 80.3378 247.894 79.6824C247.429 79.1207 247.336 78.3717 247.522 77.4355V77.2482C247.708 76.312 248.079 75.563 248.73 75.0013C249.38 74.4396 250.124 74.1587 251.053 74.1587C251.796 74.1587 252.354 74.3459 252.726 74.814C253.097 75.2822 253.283 75.8439 253.19 76.4993H251.889C251.982 76.0311 251.889 75.7503 251.704 75.4694C251.518 75.1885 251.239 75.0949 250.867 75.0949C250.403 75.0949 249.938 75.2822 249.659 75.7503C249.287 76.2184 249.102 76.6865 249.009 77.3419V77.5291C248.916 78.1845 248.916 78.7462 249.102 79.2143C249.102 79.6824 249.473 79.8697 250.031 79.8697ZM242.504 75.2822C242.783 75.0013 243.062 74.7204 243.433 74.5332C243.805 74.3459 244.177 74.2523 244.548 74.2523C245.199 74.2523 245.663 74.4396 245.942 74.9077C246.221 75.2822 246.314 75.9375 246.221 76.7801L245.478 80.6187H244.084L244.827 76.7801C244.92 76.1248 244.92 75.7503 244.734 75.4694C244.548 75.2822 244.27 75.0949 243.898 75.0949C243.619 75.0949 243.34 75.1885 243.062 75.2822C242.783 75.4694 242.597 75.6567 242.411 75.8439L241.575 80.5251H240.181L241.296 74.2523H242.597L242.504 75.2822ZM237.3 75.1885C236.929 75.1885 236.557 75.3758 236.278 75.6567C235.999 75.9375 235.721 76.4056 235.628 76.8738H238.23V76.7801C238.323 76.312 238.323 75.9375 238.137 75.6567C237.951 75.2822 237.672 75.1885 237.3 75.1885ZM236.371 80.8059C235.442 80.8059 234.791 80.5251 234.327 79.9633C233.862 79.4016 233.769 78.6526 233.862 77.7164L233.955 77.4355C234.141 76.4993 234.513 75.7503 235.163 75.0949C235.814 74.5332 236.557 74.2523 237.393 74.2523C238.23 74.2523 238.787 74.5332 239.159 75.0013C239.531 75.4694 239.623 76.2184 239.531 77.061L239.438 77.7164H235.349C235.256 78.3717 235.256 78.9335 235.442 79.308C235.628 79.6825 235.999 79.8697 236.65 79.8697C237.022 79.8697 237.393 79.7761 237.672 79.6824C237.951 79.5888 238.323 79.4016 238.601 79.2143L238.973 79.9633C238.694 80.1506 238.323 80.3378 237.858 80.5251C237.393 80.7123 236.929 80.8059 236.371 80.8059ZM233.398 72.7543H232.004L232.19 71.6309H233.583L233.398 72.7543ZM231.911 80.6187H230.517L231.632 74.3459H233.026L231.911 80.6187ZM230.238 75.3758H229.588C229.309 75.3758 229.03 75.4694 228.844 75.6567C228.566 75.8439 228.38 76.0311 228.287 76.312L227.451 80.7123H226.057L227.172 74.4396H228.473L228.38 75.2822C228.566 75.0013 228.844 74.7204 229.123 74.5332C229.402 74.3459 229.774 74.2523 230.052 74.2523C230.145 74.2523 230.238 74.2523 230.331 74.2523C230.424 74.2523 230.517 74.2523 230.517 74.3459L230.238 75.3758ZM223.083 75.1885C222.711 75.1885 222.34 75.3758 222.061 75.6567C221.782 75.9375 221.503 76.4056 221.411 76.8738H224.012V76.7801C224.105 76.312 224.105 75.9375 223.919 75.6567C223.827 75.2822 223.548 75.1885 223.083 75.1885ZM222.247 80.8059C221.318 80.8059 220.667 80.5251 220.203 79.9633C219.738 79.4016 219.645 78.6526 219.738 77.7164L219.831 77.4355C220.017 76.4993 220.388 75.7503 221.039 75.0949C221.689 74.5332 222.433 74.2523 223.269 74.2523C224.105 74.2523 224.663 74.5332 225.035 75.0013C225.406 75.4694 225.499 76.2184 225.406 77.061L225.313 77.7164H221.225C221.132 78.3717 221.132 78.9335 221.318 79.308C221.503 79.6825 221.875 79.8697 222.526 79.8697C222.897 79.8697 223.269 79.7761 223.548 79.6824C223.827 79.5888 224.198 79.4016 224.477 79.2143L224.849 79.9633C224.57 80.1506 224.198 80.3378 223.734 80.5251C223.269 80.7123 222.711 80.8059 222.247 80.8059ZM217.322 77.6227C217.415 76.8738 217.415 76.312 217.229 75.8439C217.043 75.3758 216.764 75.1885 216.207 75.1885C215.928 75.1885 215.649 75.2822 215.371 75.3758C215.092 75.563 214.906 75.7503 214.72 75.9375L214.163 79.1207C214.255 79.4016 214.348 79.4952 214.627 79.6824C214.813 79.7761 215.092 79.8697 215.371 79.8697C215.835 79.8697 216.207 79.6825 216.579 79.308C216.95 78.9335 217.136 78.3717 217.229 77.7164L217.322 77.6227ZM218.716 77.7164C218.53 78.6526 218.158 79.4016 217.694 79.9633C217.136 80.5251 216.486 80.8059 215.649 80.8059C215.278 80.8059 214.999 80.7123 214.72 80.6187C214.441 80.5251 214.255 80.3378 214.07 80.0569L213.512 83.1465H212.025L213.605 74.4396H214.813V75.1885C215.092 74.9077 215.371 74.7204 215.649 74.5332C215.928 74.3459 216.3 74.3459 216.764 74.3459C217.508 74.3459 218.065 74.6268 218.437 75.2822C218.809 75.9375 218.902 76.6865 218.716 77.7164ZM209.238 76.6865L210.91 74.3459H212.583L209.981 77.4355L211.561 80.6187H209.981L209.145 78.2781L207.472 80.6187H205.892L208.587 77.4355L207.1 74.3459H208.68L209.238 76.6865ZM204.963 76.7801H201.525L200.967 79.7761H205.056L204.87 80.7123H199.388L200.875 72.2862H206.357L206.171 73.2225H202.175L201.711 75.9375H205.149L204.963 76.7801ZM195.95 75.3758H195.299C195.02 75.3758 194.742 75.4694 194.556 75.6567C194.277 75.8439 194.091 76.0311 193.998 76.312L193.162 80.7123H191.768L192.883 74.4396H194.184L194.091 75.2822C194.277 75.0013 194.556 74.7204 194.834 74.5332C195.113 74.3459 195.485 74.2523 195.764 74.2523C195.857 74.2523 195.95 74.2523 196.043 74.2523C196.135 74.2523 196.228 74.2523 196.228 74.3459L195.95 75.3758ZM188.794 75.1885C188.423 75.1885 188.051 75.3758 187.772 75.6567C187.494 75.9375 187.215 76.4056 187.122 76.8738H189.724V76.7801C189.817 76.312 189.817 75.9375 189.631 75.6567C189.538 75.2822 189.259 75.1885 188.794 75.1885ZM187.958 80.8059C187.029 80.8059 186.378 80.5251 185.914 79.9633C185.449 79.4016 185.356 78.6526 185.449 77.7164L185.542 77.4355C185.728 76.4993 186.1 75.7503 186.75 75.0949C187.401 74.5332 188.144 74.2523 188.98 74.2523C189.817 74.2523 190.374 74.5332 190.746 75.0013C191.118 75.4694 191.21 76.2184 191.118 77.061L191.025 77.7164H186.936C186.843 78.3717 186.843 78.9335 187.029 79.308C187.215 79.6825 187.586 79.8697 188.237 79.8697C188.609 79.8697 188.98 79.7761 189.259 79.6824C189.538 79.5888 189.91 79.4016 190.188 79.2143L190.56 79.9633C190.281 80.1506 189.91 80.3378 189.445 80.5251C188.98 80.7123 188.423 80.8059 187.958 80.8059ZM176.807 75.1885C177.086 74.9077 177.365 74.6268 177.737 74.5332C178.108 74.3459 178.48 74.2523 178.945 74.2523C179.316 74.2523 179.688 74.3459 179.967 74.5332C180.246 74.7204 180.431 75.0013 180.524 75.3758C180.803 75.0013 181.082 74.7204 181.454 74.5332C181.825 74.3459 182.197 74.2523 182.662 74.2523C183.312 74.2523 183.777 74.4396 184.055 74.9077C184.334 75.3758 184.427 76.0311 184.241 76.9674L183.591 80.7123H182.197L182.847 76.9674C182.94 76.312 182.94 75.8439 182.847 75.563C182.662 75.2822 182.476 75.1885 182.011 75.1885C181.732 75.1885 181.361 75.2822 181.175 75.4694C180.896 75.6567 180.71 75.9375 180.524 76.312C180.524 76.4056 180.524 76.4993 180.524 76.5929C180.524 76.6865 180.524 76.6865 180.524 76.7801L179.781 80.7123H178.387L179.038 76.9674C179.13 76.312 179.13 75.8439 178.945 75.563C178.759 75.2822 178.573 75.1885 178.108 75.1885C177.83 75.1885 177.551 75.2822 177.272 75.3758C176.993 75.563 176.807 75.7503 176.622 75.9375L175.785 80.6187H174.391L175.506 74.3459H176.807V75.1885ZM169.095 77.6227C169.002 78.2781 169.002 78.8398 169.188 79.308C169.374 79.6825 169.745 79.9633 170.303 79.9633C170.767 79.9633 171.232 79.7761 171.604 79.308C171.975 78.8398 172.161 78.3717 172.347 77.7164V77.5291C172.44 76.8738 172.44 76.312 172.254 75.8439C172.068 75.3758 171.697 75.1885 171.232 75.1885C170.767 75.1885 170.303 75.3758 169.931 75.8439C169.559 76.312 169.374 76.7801 169.281 77.4355L169.095 77.6227ZM167.701 77.4355C167.887 76.4993 168.258 75.6567 168.909 75.0949C169.559 74.5332 170.303 74.2523 171.232 74.2523C172.161 74.2523 172.812 74.5332 173.183 75.1885C173.648 75.7503 173.741 76.5929 173.555 77.4355V77.6227C173.369 78.559 172.998 79.4016 172.347 79.9633C171.697 80.5251 170.953 80.8059 170.024 80.8059C169.095 80.8059 168.444 80.5251 167.98 79.8697C167.515 79.308 167.422 78.559 167.608 77.6227L167.701 77.4355ZM166.307 72.848L166.028 74.4396H167.236L167.05 75.2822H165.842L165.192 79.0271C165.099 79.4016 165.099 79.5888 165.192 79.7761C165.285 79.8697 165.471 79.9633 165.657 79.9633C165.75 79.9633 165.842 79.9633 165.842 79.9633C165.935 79.9633 166.028 79.9633 166.121 79.8697V80.7123C165.935 80.8059 165.842 80.8059 165.657 80.8059C165.471 80.8059 165.285 80.8995 165.099 80.8995C164.542 80.8995 164.17 80.7123 163.891 80.4314C163.612 80.1506 163.519 79.6824 163.705 79.0271L164.356 75.2822H163.334L163.519 74.4396H164.542L164.82 72.848H166.307ZM160.639 79.1207C160.639 78.8398 160.639 78.6526 160.453 78.4653C160.267 78.2781 159.895 78.0909 159.431 77.9036C158.687 77.6227 158.13 77.4355 157.851 77.1546C157.479 76.8738 157.386 76.4993 157.479 76.0311C157.572 75.563 157.851 75.0949 158.409 74.814C158.966 74.4396 159.524 74.3459 160.36 74.3459C161.103 74.3459 161.661 74.5332 162.126 74.9077C162.59 75.2822 162.683 75.7503 162.59 76.2184H161.196C161.289 75.9375 161.196 75.6567 161.01 75.4694C160.825 75.2822 160.546 75.1885 160.174 75.1885C159.802 75.1885 159.524 75.2822 159.245 75.4694C158.966 75.6567 158.873 75.8439 158.873 76.0311C158.873 76.312 158.873 76.4993 159.059 76.5929C159.245 76.6865 159.524 76.8738 160.081 77.1546C160.825 77.3419 161.382 77.6227 161.754 77.9972C162.126 78.2781 162.218 78.6526 162.126 79.1207C162.033 79.6824 161.754 80.0569 161.196 80.4314C160.639 80.7123 159.988 80.8995 159.245 80.8995C158.409 80.8995 157.851 80.7123 157.386 80.3378C156.922 79.9633 156.829 79.4952 156.922 78.9335H158.223C158.13 79.308 158.223 79.5888 158.502 79.7761C158.687 79.9633 159.059 80.0569 159.431 80.0569C159.802 80.0569 160.081 79.9633 160.36 79.7761C160.453 79.4952 160.639 79.308 160.639 79.1207ZM153.948 80.6187V79.7761C153.67 80.1506 153.391 80.3378 153.019 80.5251C152.647 80.7123 152.276 80.8059 151.904 80.8059C151.254 80.8059 150.696 80.6187 150.417 80.1506C150.138 79.6824 150.046 79.0271 150.231 78.0909L150.882 74.4396H152.276L151.625 78.0909C151.532 78.7462 151.532 79.308 151.625 79.4952C151.718 79.7761 151.997 79.8697 152.369 79.8697C152.74 79.8697 153.019 79.7761 153.298 79.6824C153.577 79.4952 153.762 79.308 153.948 79.0271L154.785 74.3459H156.178L155.063 80.6187H153.948ZM148.838 78.0909C148.745 79.0271 148.28 79.6824 147.63 80.0569C146.979 80.5251 146.143 80.7123 145.121 80.7123C144.098 80.7123 143.355 80.4314 142.797 79.8697C142.24 79.308 142.054 78.559 142.24 77.5291L142.705 75.1885C142.89 74.1587 143.355 73.3161 144.006 72.848C144.749 72.2862 145.585 72.0054 146.607 72.0054C147.63 72.0054 148.373 72.1926 148.93 72.6607C149.488 73.1288 149.581 73.7842 149.488 74.6268H148.094C148.187 73.9714 148.094 73.5033 147.908 73.3161C147.63 73.0352 147.165 72.9416 146.514 72.9416C145.957 72.9416 145.399 73.1288 144.935 73.5033C144.47 73.8778 144.191 74.4396 144.098 75.1885L143.634 77.5291C143.448 78.2781 143.541 78.8398 143.82 79.2143C144.098 79.5888 144.563 79.7761 145.213 79.7761C145.771 79.7761 146.329 79.5888 146.607 79.308C146.979 79.0271 147.258 78.559 147.351 77.9972H148.838V78.0909ZM134.899 78.4653V78.8398L137.222 74.2523H138.802L134.806 81.5549C134.527 82.023 134.249 82.3975 133.877 82.6784C133.505 82.9593 133.041 83.1465 132.483 83.1465C132.39 83.1465 132.204 83.1465 132.111 83.1465C132.018 83.1465 131.833 83.1465 131.74 83.0529L132.018 82.2103C132.018 82.2103 132.111 82.2103 132.204 82.2103C132.297 82.2103 132.39 82.2103 132.39 82.2103C132.669 82.2103 132.855 82.1166 133.133 81.9294C133.319 81.7422 133.505 81.4613 133.691 81.274L134.063 80.6187L132.762 74.3459H134.341L134.899 78.4653ZM130.253 77.6227C130.346 76.8738 130.346 76.312 130.253 75.8439C130.067 75.3758 129.788 75.1885 129.231 75.1885C128.952 75.1885 128.673 75.2822 128.394 75.4694C128.116 75.6567 127.93 75.8439 127.744 76.1248L127.186 79.1207C127.279 79.4016 127.372 79.5888 127.558 79.7761C127.744 79.9633 128.023 79.9633 128.394 79.9633C128.859 79.9633 129.324 79.7761 129.602 79.4016C129.881 79.0271 130.16 78.4653 130.253 77.81V77.6227ZM131.647 77.7164C131.461 78.6526 131.089 79.4016 130.625 79.9633C130.067 80.5251 129.417 80.8059 128.58 80.8059C128.209 80.8059 127.837 80.7123 127.558 80.5251C127.279 80.3378 127.093 80.1506 126.908 79.8697L126.629 80.7123H125.421L127.093 71.6309H128.487L127.837 75.0949C128.116 74.814 128.394 74.6268 128.673 74.5332C128.952 74.4396 129.324 74.3459 129.695 74.3459C130.439 74.3459 130.996 74.6268 131.368 75.2822C131.74 75.9375 131.833 76.6865 131.647 77.7164ZM117.615 75.2822C117.894 75.0013 118.173 74.7204 118.545 74.5332C118.916 74.3459 119.288 74.2523 119.66 74.2523C120.31 74.2523 120.775 74.4396 121.053 74.9077C121.332 75.2822 121.425 75.9375 121.332 76.7801L120.589 80.6187H119.195L119.938 76.7801C120.031 76.1248 120.031 75.7503 119.845 75.4694C119.66 75.2822 119.381 75.0949 119.009 75.0949C118.73 75.0949 118.452 75.1885 118.173 75.2822C117.894 75.4694 117.708 75.6567 117.522 75.8439L116.686 80.5251H115.292L116.407 74.2523H117.708L117.615 75.2822ZM112.319 75.1885C111.947 75.1885 111.575 75.3758 111.297 75.6567C111.018 75.9375 110.739 76.4056 110.646 76.8738H113.248V76.7801C113.341 76.312 113.341 75.9375 113.155 75.6567C113.062 75.2822 112.783 75.1885 112.319 75.1885ZM111.482 80.8059C110.553 80.8059 109.903 80.5251 109.438 79.9633C108.973 79.4016 108.881 78.6526 108.973 77.7164L109.066 77.4355C109.252 76.4993 109.624 75.7503 110.274 75.0949C110.925 74.5332 111.668 74.2523 112.505 74.2523C113.341 74.2523 113.898 74.5332 114.27 75.0013C114.642 75.4694 114.735 76.2184 114.642 77.061L114.549 77.7164H110.46C110.367 78.3717 110.367 78.9335 110.553 79.308C110.739 79.6825 111.111 79.8697 111.761 79.8697C112.133 79.8697 112.505 79.7761 112.783 79.6824C113.062 79.5888 113.434 79.4016 113.713 79.2143L114.084 79.9633C113.805 80.1506 113.434 80.3378 112.969 80.5251C112.412 80.7123 111.947 80.8059 111.482 80.8059ZM105.071 78.7462V79.2143L105.257 78.7462L107.394 74.3459H108.881L105.442 80.6187H104.234L103.026 74.3459H104.513L105.071 78.7462ZM102.19 72.7543H100.796L100.982 71.6309H102.376L102.19 72.7543ZM100.796 80.6187H99.4024L100.517 74.3459H101.911L100.796 80.6187ZM99.0307 75.3758H98.3802C98.1014 75.3758 97.8227 75.4694 97.6368 75.6567C97.358 75.8439 97.1722 76.0311 97.0793 76.312L96.243 80.7123H94.8491L95.9642 74.4396H97.2651V75.2822C97.451 75.0013 97.7297 74.7204 98.0085 74.5332C98.2873 74.3459 98.659 74.2523 98.9377 74.2523C99.0307 74.2523 99.1236 74.2523 99.2165 74.2523C99.3094 74.2523 99.4024 74.2523 99.4024 74.3459L99.0307 75.3758ZM89.4596 73.1288L88.2516 79.7761H89.7383C90.3888 79.7761 91.0393 79.4952 91.5039 79.0271C92.0614 78.4653 92.3402 77.9036 92.526 77.061L92.7119 75.8439C92.8977 75.0013 92.8048 74.3459 92.4331 73.8778C92.1543 73.4097 91.5968 73.1288 90.8534 73.1288H89.4596ZM86.6719 80.6187L88.1586 72.1926H91.0393C92.0614 72.1926 92.8977 72.5671 93.5482 73.2225C94.1057 73.8778 94.3845 74.814 94.1987 75.8439L94.0128 77.061C93.827 78.1845 93.2694 79.0271 92.526 79.6824C91.6897 80.3378 90.7605 80.6187 89.6454 80.6187H86.6719Z" fill="#231F20"/>
</svg>
